<?xml version="1.0" standalone="no"?>
<!DOCTYPE svg PUBLIC "-//W3C//DTD SVG 20010904//EN"
 "http://www.w3.org/TR/2001/REC-SVG-20010904/DTD/svg10.dtd">
<svg version="1.0" xmlns="http://www.w3.org/2000/svg"
 width="288.000000pt" height="46.000000pt" viewBox="0 0 288.000000 46.000000"
 preserveAspectRatio="xMidYMid meet">

<g transform="translate(0.000000,46.000000) scale(0.100000,-0.100000)"
fill="#000000" stroke="none">
<path d="M236 312 c-3 -5 -19 -47 -36 -93 -17 -46 -34 -86 -37 -89 -3 -3 -4 2
-1 10 21 59 26 55 -68 52 l-86 -4 5 -40 c8 -62 36 -92 86 -96 38 -3 46 1 79
35 51 51 103 196 80 220 -9 9 -18 11 -22 5z m-76 -195 c0 -2 -12 -14 -27 -28
l-28 -24 24 28 c23 25 31 32 31 24z"/>
</g>
</svg>
